<?xml version="1.0" encoding="UTF-8" standalone="no"?>
<!-- Created with Inkscape (http://www.inkscape.org/) -->

<svg
   version="1.1"
   id="svg2"
   width="286.66666"
   height="285.33334"
   viewBox="0 0 286.66666 285.33334"
   sodipodi:docname="company-logo.eps"
   xmlns:inkscape="http://www.inkscape.org/namespaces/inkscape"
   xmlns:sodipodi="http://sodipodi.sourceforge.net/DTD/sodipodi-0.dtd"
   xmlns="http://www.w3.org/2000/svg"
   xmlns:svg="http://www.w3.org/2000/svg">
  <defs
     id="defs6" />
  <sodipodi:namedview
     id="namedview4"
     pagecolor="#ffffff"
     bordercolor="#000000"
     borderopacity="0.25"
     inkscape:showpageshadow="2"
     inkscape:pageopacity="0.0"
     inkscape:pagecheckerboard="0"
     inkscape:deskcolor="#d1d1d1" />
  <g
     id="g8"
     inkscape:groupmode="layer"
     inkscape:label="ink_ext_XXXXXX"
     transform="matrix(1.3333333,0,0,-1.3333333,0,285.33333)">
    <g
       id="g10"
       transform="scale(0.1)">
      <path
         d="M 369.629,216.945 1074.8,1501.09 1781.68,215.938 H 1433.26 L 1518.93,421.563 1074.8,1204.08 650.738,417.133 750.078,217.172 Z M 1075.65,1672.45 c 48.89,0 88.54,39.64 88.54,88.53 0,48.89 -39.65,88.54 -88.54,88.54 -48.88,0 -88.529,-39.65 -88.529,-88.54 0,-48.89 39.649,-88.53 88.529,-88.53 z m 0,-74.25 c 89.89,0 162.79,72.89 162.79,162.78 0,89.89 -72.9,162.79 -162.79,162.79 -89.884,0 -162.783,-72.9 -162.783,-162.79 0,-89.89 72.899,-162.78 162.783,-162.78"
         style="fill:#231f20;fill-opacity:1;fill-rule:evenodd;stroke:none"
         id="path12" />
    </g>
  </g>
</svg>
